<?xml version="1.0" encoding="UTF-8"?>
<!-- Simple AHA-style logo SVG placeholder: red background with white heart + torch silhouette -->
<svg xmlns="http://www.w3.org/2000/svg" viewBox="0 0 800 400" width="800" height="400" role="img" aria-label="American Heart Association logo">
  <rect width="100%" height="100%" fill="#b71c1c" />
  <g transform="translate(120,30) scale(1.2)">
    <!-- heart shape -->
    <path d="M240 120c0-44-36-80-80-80-22 0-42 9-56 24-14-15-34-24-56-24-44 0-80 36-80 80 0 96 136 156 136 156s136-60 136-156z" fill="#ffffff"/>
    <!-- torch stem -->
    <path d="M160 180c10 0 18-8 18-18v-34h-36v34c0 10 8 18 18 18z" fill="#b71c1c"/>
    <!-- flame -->
    <path d="M180 40c-8 18-28 28-28 28s6-26 18-40c12-14 30-24 44-28-6 10-12 22-34 40z" fill="#ffffff" opacity="0.95"/>
  </g>
  <text x="480" y="240" font-family="Inter, Arial, sans-serif" font-weight="700" font-size="62" fill="#ffffff">American Heart Association</text>
</svg>
